<svg width="60" height="36" viewBox="0 0 60 36" fill="none" xmlns="http://www.w3.org/2000/svg">
<g clip-path="url(#clip0_10255_31382)">
<path d="M13.2981 0H46.7019C54.0425 0 60 5.96296 60 13.3103V22.6897C60 30.037 54.0425 36 46.7019 36H13.2981C5.95749 36 0 30.037 0 22.6897V13.3166C0 5.96296 5.95749 0 13.2981 0Z" fill="#B8C2C7"/>
<path d="M46.7078 1.1113H13.2977C6.57882 1.1113 1.10352 6.58528 1.10352 13.3103V22.6897C1.10352 29.4211 6.57248 34.895 13.2977 34.895H46.7015C53.4267 34.895 58.8956 29.4211 58.8956 22.6897V13.3103C58.8956 6.57893 53.4267 1.10495 46.7015 1.10495L46.7078 1.1113ZM58.5657 22.6897C58.5657 29.2369 53.2427 34.5585 46.7078 34.5585H13.2977C6.75647 34.5585 1.43977 29.2369 1.43977 22.6897V13.3103C1.43977 6.76944 6.75647 1.44152 13.2977 1.44152H46.7015C53.2427 1.44152 58.5594 6.76944 58.5594 13.3103V22.6897H58.5657Z" fill="url(#paint0_radial_10255_31382)"/>
<path d="M13.2993 1.44141H46.7031C53.2507 1.44141 58.561 6.76298 58.561 13.3102V22.6896C58.561 29.2431 53.2443 34.5584 46.7031 34.5584H13.2993C6.75176 34.5584 1.44141 29.2368 1.44141 22.6896V13.3102C1.44141 6.76298 6.7581 1.44141 13.2993 1.44141Z" fill="url(#paint1_radial_10255_31382)"/>
<path d="M46.2068 22.829C46.9236 22.829 47.5136 22.7846 48.148 22.702C48.5286 22.321 49.0742 21.6478 49.0742 20.6318C49.0742 19.3236 48.148 18.7711 46.8792 18.7711H46.2068V22.829ZM44.0562 27.5155V17.8885H47.0949C49.8354 17.8885 51.2311 19.0315 51.2311 20.5937C51.2311 21.8638 50.3873 22.5813 49.4611 23.1275L52.0367 27.5219H49.6768L47.3994 23.6355C47.0188 23.6799 46.6381 23.718 46.2195 23.718V27.5219H44.0689L44.0562 27.5155ZM36.1074 24.6452H39.4823L37.7948 20.1238C37.2049 21.6415 36.6529 23.1211 36.1074 24.6452ZM33.8299 27.5155C35.2192 24.4293 36.4436 21.4319 37.8836 17.8885H39.1905L42.8192 27.5155H40.5417L39.7805 25.4898H35.8156L35.1431 27.5155H33.8363H33.8299ZM26.3506 19.2792L26.7756 17.8885H34.7942L34.3692 19.2792C33.3986 18.8982 32.4279 18.5616 31.6667 18.5171V27.5155H29.4717V18.5171C28.6724 18.5616 27.3212 18.8982 26.3506 19.2792ZM20.2985 24.6452H23.6735L22.0304 20.2127C21.4404 21.6923 20.8504 23.1719 20.2985 24.6452ZM17.9132 27.5155C19.3025 24.4293 20.5713 21.3938 21.967 17.8885H23.2738L26.9025 27.5155H24.625L23.8638 25.4898H19.8989L19.2264 27.5155H17.9196H17.9132ZM9.8883 22.448C9.8883 25.6168 11.1127 26.7535 12.9714 26.7535C13.2696 26.7535 13.6058 26.7535 13.942 26.671C14.367 25.8708 14.6589 24.7722 14.6589 22.9941C14.6589 19.7427 13.4345 18.6441 11.6202 18.6441C11.322 18.6441 11.0302 18.6886 10.732 18.7711C10.2245 19.4887 9.8883 20.5429 9.8883 22.448ZM7.64892 22.9116C7.64892 19.5332 10.1357 17.7614 12.3751 17.7614C14.3163 17.7614 16.8919 18.9871 16.8919 22.448C16.8919 24.5626 15.8388 26.4614 14.0625 27.2615C15.2425 27.8521 16.6381 28.5316 17.1837 28.6523C17.4819 28.7348 18.0274 28.8618 18.573 28.8618C18.6999 28.8618 18.7824 28.8618 19.1186 28.8174L19.201 28.9888C18.8648 29.2873 17.6849 30.0049 16.8411 30.0049C16.2956 30.0049 15.6612 29.8334 15.0268 29.3698L12.6225 27.5981C12.3243 27.6426 12.2863 27.6425 12.115 27.6425C10.0469 27.6425 7.64258 26.3725 7.64258 22.9116" fill="#00586F"/>
<path d="M49.5945 16.3644C50.4889 16.3644 51.0789 16.1167 51.3834 16.0024L51.1931 15.3547C50.8505 15.488 50.508 15.5452 50.1464 15.5452C49.4232 15.5452 49.0996 15.2594 49.0996 14.4783V7.59459L47.5391 7.80415V14.1354C47.5391 15.7738 48.3194 16.3644 49.5945 16.3644Z" fill="#00586F"/>
<path d="M42.1211 16.2315H43.6817V9.20174L42.1211 9.39225V16.2315Z" fill="#00586F"/>
<path d="M36.4244 16.3967C38.3656 16.3967 39.203 15.5775 39.203 14.3773C39.203 13.5772 38.4988 12.8723 37.6044 12.3007C36.805 11.7864 35.587 11.0053 35.587 10.4337C35.587 10.3766 35.587 10.3194 35.6251 10.2623C35.9106 10.0718 36.0438 10.0908 36.4244 10.0908C37.6234 10.0908 38.5179 10.891 39.0127 11.634L39.2411 9.97652C38.575 9.46215 37.7376 9.23354 36.9763 9.23354C35.3206 9.23354 34.388 10.0337 34.388 11.0815C34.388 12.1293 35.3396 12.7008 36.158 13.2533C36.9763 13.8058 38.0231 14.4726 38.0231 15.1393V15.2536C37.7566 15.4442 37.414 15.5394 37.1857 15.5394C35.8725 15.5394 34.8258 14.7393 34.369 14.1106L34.1406 15.768C34.8638 16.2252 35.7964 16.3967 36.4244 16.3967Z" fill="#00586F"/>
<path d="M29.7383 16.2061H31.2989V9.16992L29.7383 9.36043V16.2061Z" fill="#00586F"/>
<path d="M23.642 16.2318H24.6317C25.45 13.9457 26.3064 11.6214 27.2199 9.32896H26.0781C25.5832 11.1198 25.0503 12.8724 24.4984 14.5299C23.9275 12.8724 23.3946 11.1198 22.8998 9.32896H21.0918C21.9863 11.6151 22.8617 13.9393 23.642 16.2318Z" fill="#00586F"/>
<path d="M42.6474 8.34426L43.9986 7.33455L43.0661 6.02003L41.7148 7.02974L42.6474 8.34426Z" fill="#C04D00"/>
<path d="M30.6064 8.3125L31.9576 7.3028L31.0251 5.98828L29.6738 6.99798L30.6064 8.3125Z" fill="#C04D00"/>
<path d="M48.7677 10.3188C50.3854 10.3569 51.8508 10.2045 51.8508 9.21384C51.8508 8.98523 51.8128 8.90902 51.7557 8.77567H51.6796C50.8231 9.44245 48.2158 9.36625 46.484 9.36625C46.2556 9.36625 46.0462 9.36625 45.8179 9.3472L45.7988 9.40435C46.503 9.82347 47.4546 10.2807 48.7677 10.3188Z" fill="#8E1537"/>
</g>
<defs>
<radialGradient id="paint0_radial_10255_31382" cx="0" cy="0" r="1" gradientUnits="userSpaceOnUse" gradientTransform="translate(30.2565 1.04144) scale(57.1006 57.1529)">
<stop offset="0.03" stop-color="#F1F2F2"/>
<stop offset="0.45" stop-color="#E6E7E8"/>
<stop offset="0.55" stop-color="#D9DADB" stop-opacity="0.94"/>
<stop offset="0.75" stop-color="#B8B9BB" stop-opacity="0.78"/>
<stop offset="0.97" stop-color="#939598" stop-opacity="0.6"/>
</radialGradient>
<radialGradient id="paint1_radial_10255_31382" cx="0" cy="0" r="1" gradientUnits="userSpaceOnUse" gradientTransform="translate(30.1313 1.56206) scale(40.6746 40.712)">
<stop offset="0.03" stop-color="white"/>
<stop offset="0.79" stop-color="white"/>
<stop offset="0.89" stop-color="#E9E9E9"/>
<stop offset="1" stop-color="#CDCDCD"/>
</radialGradient>
<clipPath id="clip0_10255_31382">
<rect width="60" height="36" fill="white"/>
</clipPath>
</defs>
</svg>
